<svg width="20" height="21" viewBox="0 0 20 21" fill="none" xmlns="http://www.w3.org/2000/svg">
<g clip-path="url(#clip0_171_7939)">
<path fillRule="evenodd" clip-rule="evenodd" d="M12.7929 13.2929C13.1834 12.9024 13.8166 12.9024 14.2071 13.2929L19.7071 18.7929C20.0976 19.1834 20.0976 19.8166 19.7071 20.2071C19.3166 20.5976 18.6834 20.5976 18.2929 20.2071L12.7929 14.7071C12.4024 14.3166 12.4024 13.6834 12.7929 13.2929Z" fill="#D1D1DD"/>
<path fillRule="evenodd" clip-rule="evenodd" d="M8 16.5C12.4183 16.5 16 12.9183 16 8.5C16 4.08172 12.4183 0.5 8 0.5C3.58172 0.5 0 4.08172 0 8.5C0 12.9183 3.58172 16.5 8 16.5ZM8 14.5C11.3137 14.5 14 11.8137 14 8.5C14 5.18629 11.3137 2.5 8 2.5C4.68629 2.5 2 5.18629 2 8.5C2 11.8137 4.68629 14.5 8 14.5Z" fill="#A4A4BA"/>
</g>
<defs>
<clipPath id="clip0_171_7939">
<rect width="20" height="20" fill="white" transform="translate(0 0.5)"/>
</clipPath>
</defs>
</svg>
